<?xml version="1.0" encoding="utf-8"?>
<!-- Generator: Adobe Illustrator 16.0.0, SVG Export Plug-In . SVG Version: 6.00 Build 0)  -->
<!DOCTYPE svg PUBLIC "-//W3C//DTD SVG 1.1 Tiny//EN" "http://www.w3.org/Graphics/SVG/1.1/DTD/svg11-tiny.dtd">
<svg version="1.1" baseProfile="tiny" id="Layer_1" xmlns="http://www.w3.org/2000/svg" xmlns:xlink="http://www.w3.org/1999/xlink"
	 x="0px" y="0px" width="24px" height="24px" viewBox="0 0 24 24" xml:space="preserve">
<path fill="#FFFFFF" d="M22.031,7.958c-0.082-0.402-0.304-0.801-0.627-1.124c-0.421-0.421-0.954-0.662-1.461-0.662
	c-0.372,0-0.712,0.135-0.957,0.379l-3.001,3.002c-0.011-0.129-0.055-0.247-0.124-0.348c0.133-0.159,0.19-0.368,0.158-0.573
	c-0.223-1.419-1-2.671-2.17-3.529l1.183-1.874c0.163-0.255,0.212-0.572,0.135-0.866c-0.08-0.302-0.289-0.562-0.572-0.713
	c-0.172-0.09-0.365-0.138-0.558-0.138c-0.411,0-0.784,0.202-0.997,0.541l-1.309,2.074c-0.435-0.104-0.875-0.155-1.313-0.155
	c-0.447,0-0.892,0.053-1.33,0.158L7.775,2.052c-0.211-0.337-0.583-0.54-0.995-0.54c-0.193,0-0.386,0.047-0.556,0.137
	C5.939,1.8,5.731,2.059,5.651,2.361c-0.078,0.294-0.027,0.612,0.137,0.87l1.185,1.88C5.811,5.97,5.038,7.218,4.816,8.632
	c-0.033,0.206,0.026,0.417,0.16,0.576C4.898,9.322,4.853,9.462,4.852,9.61v0.211C4.8,9.786,4.737,9.768,4.68,9.74
	C4.634,9.718,4.593,9.693,4.545,9.676c-0.151-0.054-0.311-0.09-0.482-0.09c0,0-0.001,0-0.001,0s0,0,0,0
	c-0.51,0-1.043,0.241-1.463,0.661c-0.402,0.403-0.636,0.91-0.656,1.401c0,0.021-0.007,0.043-0.007,0.064c0,0,0,0,0,0v0
	c0,0.141,0.038,0.271,0.075,0.4c0.013,0.043,0.009,0.093,0.025,0.134c0.065,0.165,0.163,0.314,0.287,0.438l1.733,1.733l0.788,0.788
	l-0.001,1.273c0,1.629,0.773,2.316,1.607,2.583v1.913c0,0.848,0.839,1.511,1.91,1.511c1.071,0,1.911-0.663,1.911-1.511v-1.75h0.157
	h0.108v1.75c0,0.848,0.839,1.511,1.91,1.511c1.072,0,1.912-0.663,1.912-1.511v-1.908c1.057-0.341,1.63-1.23,1.63-2.563v-3.988
	c0.396,0.341,0.87,0.534,1.324,0.534c0.372,0,0.712-0.135,0.956-0.379l3.42-3.422C22.007,8.932,22.133,8.46,22.031,7.958z
	 M2.831,12.177c-0.316-0.315-0.192-0.951,0.277-1.42c0.291-0.293,0.649-0.45,0.953-0.45c0.182,0,0.345,0.057,0.463,0.175
	l1.045,1.045c0,0,0-0.001,0-0.001l2.425,2.425c0.315,0.315,0.19,0.95-0.275,1.417c-0.294,0.293-0.653,0.452-0.958,0.452
	c-0.182,0-0.345-0.057-0.462-0.175L2.831,12.177z M15.267,16.507c0,1.177-0.501,1.858-1.63,1.98v2.49
	c0,0.435-0.535,0.791-1.191,0.791c-0.656,0-1.189-0.356-1.189-0.791V18.51c-0.561-0.002-1.147-0.003-1.706-0.005v2.473
	c0,0.435-0.535,0.791-1.19,0.791c-0.657,0-1.19-0.356-1.19-0.791V18.48c-1.102-0.115-1.607-0.736-1.607-1.999
	c0-0.143,0-0.336,0-0.554l0.227,0.227c0.249,0.248,0.593,0.385,0.972,0.385c0.51,0,1.045-0.241,1.466-0.663
	c0.762-0.762,0.881-1.831,0.276-2.436l-2.932-2.932c0.001-0.544,0.001-0.896,0.001-0.896h9.694
	C15.267,9.612,15.267,15.205,15.267,16.507z M5.527,8.744C5.758,7.272,6.69,6.029,7.979,5.321c-0.015-0.017-0.038-0.026-0.05-0.045
	L6.395,2.845C6.272,2.65,6.344,2.4,6.559,2.286c0.07-0.037,0.146-0.054,0.221-0.054c0.154,0,0.304,0.072,0.386,0.204l1.535,2.431
	C8.724,4.902,8.732,4.941,8.743,4.98c0.522-0.183,1.085-0.289,1.674-0.289c0.583,0,1.139,0.105,1.657,0.284
	c0.011-0.036,0.019-0.074,0.042-0.108l1.533-2.431c0.083-0.132,0.233-0.204,0.387-0.204c0.076,0,0.151,0.017,0.221,0.054
	c0.214,0.114,0.289,0.364,0.165,0.559l-1.535,2.432c-0.01,0.017-0.029,0.024-0.042,0.039c1.294,0.707,2.23,1.953,2.462,3.429H5.527z
	 M21.177,8.743l-3.42,3.422c-0.114,0.113-0.271,0.168-0.447,0.168c-0.302,0-0.661-0.159-0.954-0.453
	c-0.464-0.463-0.591-1.091-0.283-1.398l3.421-3.421c0.114-0.114,0.271-0.168,0.448-0.168c0.302,0,0.66,0.158,0.952,0.45
	C21.357,7.807,21.486,8.435,21.177,8.743z M8.422,6.11c-0.358,0-0.65,0.291-0.65,0.65s0.292,0.65,0.65,0.65
	c0.357,0,0.649-0.291,0.649-0.65S8.78,6.11,8.422,6.11z M12.367,6.11c-0.358,0-0.649,0.291-0.649,0.65s0.292,0.65,0.649,0.65
	c0.358,0,0.648-0.291,0.648-0.65S12.725,6.11,12.367,6.11z"/>
</svg>
